<svg width="399" height="887" viewBox="0 0 399 887" fill="none" xmlns="http://www.w3.org/2000/svg">
<path d="M217.404 571C130.472 571 60 641.537 60 728.55C60 815.563 130.472 886.1 217.404 886.1C304.336 886.1 374.808 815.563 374.808 728.55C374.808 641.537 304.333 571 217.404 571ZM217.404 836.428C157.878 836.428 109.626 788.128 109.626 728.55C109.626 668.973 157.882 620.672 217.404 620.672C276.93 620.672 325.182 668.973 325.182 728.55C325.182 788.128 276.926 836.428 217.404 836.428Z" fill="#FF0B53"/>
<path d="M90.2814 49.9594C148.948 42.5016 174.164 85.7068 159.629 115.217C145.093 144.727 80.5329 150.964 89.5572 198.761C98.5856 246.562 20.0975 268.172 20.0975 268.172" stroke="white" stroke-miterlimit="10"/>
<path d="M1 62.4336C1 62.4336 45.7219 78.6449 90.219 72.8245C134.716 67.0041 139.919 93.1647 134.716 103.581C123.919 125.196 66.1972 129.349 62.4593 164.264C59.6496 190.507 81.9773 225.78 31.3155 244.483" stroke="white" stroke-miterlimit="10"/>
<path d="M20.9343 79.8905C20.9343 79.8905 66.6469 74.0534 58.4842 99.8432C49.1311 129.404 27.1614 128.937 47.924 166.347C55.3083 179.654 57.4769 233.267 16.7802 222.459" stroke="white" stroke-miterlimit="10"/>
<path d="M98.3774 109.817C109.729 109.817 118.932 104.792 118.932 98.5933C118.932 92.3944 109.729 87.3691 98.3774 87.3691C87.0255 87.3691 77.823 92.3944 77.823 98.5933C77.823 104.792 87.0255 109.817 98.3774 109.817Z" stroke="white" stroke-miterlimit="10"/>
<path d="M359.775 305.019C359.775 305.019 277.299 285.62 252.383 367.089C234.505 425.547 232.981 457.424 195.893 473.494C158.81 489.564 137.214 493.005 135 510.404" stroke="white" stroke-miterlimit="10"/>
<path d="M232.427 510.404C232.427 510.404 210.658 456.312 268.108 428.052C306.89 408.974 288.709 344.204 313.842 323.584C333.776 307.235 359.775 342.537 359.775 342.537" stroke="white" stroke-miterlimit="10"/>
<path d="M249.464 525.019C249.464 525.019 250.126 483.176 294.419 455.745C338.713 428.314 321.376 380.93 346.85 373.726C372.321 366.523 397.791 397.558 397.791 397.558" stroke="white" stroke-miterlimit="10"/>
<path d="M280.621 510.07C280.621 510.07 277.299 475.71 311.074 471.277C344.848 466.844 373.64 504.404 373.64 504.404" stroke="white" stroke-miterlimit="10"/>
<path d="M203.242 39.5031C203.242 17.6861 185.503 -0.000104672 163.621 -0.000100022C141.739 -9.53719e-05 124 17.6861 124 39.5031C124 61.3202 141.739 79.0063 163.621 79.0063C185.503 79.0063 203.242 61.3201 203.242 39.5031Z" fill="#FF0B53"/>
<path d="M118.133 309L105.029 322.112L91.9301 309L82.1523 318.787L95.2517 331.898L82.1523 345.01L91.9301 354.801L105.029 341.685L118.133 354.801L127.911 345.014L114.807 331.898L127.911 318.787L118.133 309Z" stroke="#FF0B53" stroke-width="4" stroke-miterlimit="10"/>
<path d="M357.548 133.753L334.042 157.276L310.541 133.753L293 151.31L316.502 174.838L293 198.361L310.541 215.918L334.042 192.395L357.548 215.918L375.089 198.361L351.587 174.838L375.089 151.31L357.548 133.753Z" fill="#FF0B53"/>
</svg>
