<svg width="1854" height="944" viewBox="0 0 1854 944" fill="none" xmlns="http://www.w3.org/2000/svg">
<path d="M290.441 4.19852C480.71 -19.9665 562.493 120.029 515.351 215.649C468.209 311.27 258.824 331.479 288.092 486.351C317.373 641.237 62.8174 711.261 62.8174 711.261" stroke="white" stroke-miterlimit="10"/>
<path d="M0.879395 44.6176C0.879395 44.6176 145.923 97.1461 290.238 78.2866C434.553 59.4271 451.428 144.194 434.553 177.944C399.534 247.982 212.33 261.441 200.207 374.571C191.094 459.608 263.508 573.899 99.1999 634.5" stroke="white" stroke-miterlimit="10"/>
<path d="M65.531 101.183C65.531 101.183 213.788 82.2691 187.314 165.834C156.98 261.617 85.727 260.105 153.065 381.321C177.014 424.44 184.047 598.158 52.058 563.139" stroke="white" stroke-miterlimit="10"/>
<path d="M316.698 198.153C353.515 198.153 383.361 181.87 383.361 161.784C383.361 141.698 353.515 125.415 316.698 125.415C279.881 125.415 250.035 141.698 250.035 161.784C250.035 181.87 279.881 198.153 316.698 198.153Z" stroke="white" stroke-miterlimit="10"/>
<path d="M1730.08 279.41C1730.08 279.41 1462.59 216.554 1381.78 480.533C1323.8 669.951 1318.86 773.239 1198.57 825.309C1078.3 877.378 1008.26 888.53 1001.08 944.905" stroke="white" stroke-miterlimit="10"/>
<path d="M1317.06 944.906C1317.06 944.906 1246.46 769.635 1432.78 678.065C1558.56 616.248 1499.6 406.377 1581.11 339.566C1645.76 286.591 1730.08 400.977 1730.08 400.977" stroke="white" stroke-miterlimit="10"/>
<path d="M1372.32 992.263C1372.32 992.263 1374.46 856.683 1518.12 767.799C1661.77 678.915 1605.54 525.38 1688.16 502.038C1770.77 478.697 1853.38 579.258 1853.38 579.258" stroke="white" stroke-miterlimit="10"/>
<path d="M1473.37 943.826C1473.37 943.826 1462.59 832.491 1572.13 818.127C1681.67 803.763 1775.05 925.466 1775.05 925.466" stroke="white" stroke-miterlimit="10"/>
<path d="M273.742 675.122L231.244 717.606L188.759 675.122L157.048 706.833L199.532 749.318L157.048 791.802L188.759 823.527L231.244 781.029L273.742 823.527L305.453 791.816L262.955 749.318L305.453 706.833L273.742 675.122Z" stroke="#FF0B53" stroke-width="4" stroke-miterlimit="10"/>
</svg>
